<?xml version="1.0" encoding="iso-8859-1"?>
<!-- Generator: Adobe Illustrator 19.1.0, SVG Export Plug-In . SVG Version: 6.00 Build 0)  -->
<svg xmlns="http://www.w3.org/2000/svg" xmlns:xlink="http://www.w3.org/1999/xlink" version="1.1" id="Capa_1" x="0px" y="0px" viewBox="0 0 25.419 25.419" style="enable-background:new 0 0 25.419 25.419;" xml:space="preserve" width="512px" height="512px">
<g>
	<g>
		<path d="M16.417,13.822l4.66-3.389c0.212-0.159,0.265-0.371,0.212-0.583c-0.053-0.212-0.265-0.371-0.53-0.371h-5.772l-1.801-5.507    c-0.053-0.212-0.265-0.371-0.53-0.371c-0.265,0-0.424,0.159-0.53,0.371l-1.801,5.507H4.554c-0.212,0-0.424,0.159-0.53,0.371    c-0.053,0.212,0,0.477,0.212,0.583l4.66,3.389l-1.801,5.507c-0.053,0.212,0,0.477,0.212,0.583c0.212,0.159,0.424,0.159,0.635,0    l4.66-3.389l4.66,3.389c0.106,0.053,0.212,0.106,0.318,0.106s0.212-0.053,0.318-0.106c0.159-0.159,0.265-0.371,0.212-0.583    L16.417,13.822z M13.027,15.463c-0.106-0.053-0.212-0.106-0.318-0.106s-0.212,0.053-0.318,0.106l-3.654,2.648l1.377-4.29    c0.053-0.212,0-0.477-0.212-0.583l-3.654-2.648h4.501c0.212,0,0.424-0.159,0.53-0.371l1.377-4.29l1.377,4.29    c0.053,0.212,0.265,0.371,0.53,0.371h4.501l-3.654,2.648c-0.159,0.159-0.265,0.371-0.212,0.583l1.377,4.29L13.027,15.463z" fill="#FFFFFF"/>
		<path d="M12.71,2.489c0.318,0,0.53-0.212,0.53-0.53V0.53c0-0.318-0.212-0.53-0.53-0.53s-0.53,0.212-0.53,0.53v1.43    C12.18,2.224,12.392,2.489,12.71,2.489z" fill="#FFFFFF"/>
		<path d="M12.71,22.93c-0.318,0-0.53,0.212-0.53,0.53v1.43c0,0.318,0.212,0.53,0.53,0.53s0.53-0.212,0.53-0.53v-1.43    C13.239,23.195,13.027,22.93,12.71,22.93z" fill="#FFFFFF"/>
		<path d="M24.89,12.18h-1.43c-0.318,0-0.53,0.212-0.53,0.53s0.212,0.53,0.53,0.53h1.43c0.318,0,0.53-0.212,0.53-0.53    S25.207,12.18,24.89,12.18z" fill="#FFFFFF"/>
		<path d="M2.489,12.71c0-0.318-0.212-0.53-0.53-0.53H0.53C0.212,12.18,0,12.392,0,12.71s0.212,0.53,0.53,0.53h1.43    C2.224,13.239,2.489,13.027,2.489,12.71z" fill="#FFFFFF"/>
		<path d="M20.335,5.613c0.159,0,0.265-0.053,0.371-0.159l1.006-1.006c0.212-0.212,0.212-0.53,0-0.741s-0.53-0.212-0.741,0    l-1.006,1.006c-0.212,0.212-0.212,0.53,0,0.741C20.071,5.56,20.177,5.613,20.335,5.613z" fill="#FFFFFF"/>
		<path d="M4.713,19.965l-1.006,1.006c-0.212,0.212-0.212,0.53,0,0.741c0.106,0.106,0.265,0.159,0.371,0.159    c0.106,0,0.265-0.053,0.371-0.159l1.006-1.006c0.212-0.212,0.212-0.53,0-0.741C5.296,19.753,4.925,19.753,4.713,19.965z" fill="#FFFFFF"/>
		<path d="M20.706,19.965c-0.212-0.212-0.53-0.212-0.741,0c-0.212,0.212-0.212,0.53,0,0.741l1.006,1.006    c0.106,0.106,0.265,0.159,0.371,0.159c0.159,0,0.265-0.053,0.371-0.159c0.212-0.212,0.212-0.53,0-0.741L20.706,19.965z" fill="#FFFFFF"/>
		<path d="M4.713,5.455C4.819,5.56,4.978,5.613,5.084,5.613c0.159,0,0.265-0.053,0.371-0.159c0.212-0.212,0.212-0.53,0-0.741    L4.448,3.707c-0.212-0.212-0.53-0.212-0.741,0c-0.212,0.212-0.212,0.53,0,0.741L4.713,5.455z" fill="#FFFFFF"/>
		<path d="M16.734,3.283c0.053,0.053,0.159,0.053,0.212,0.053c0.212,0,0.424-0.106,0.477-0.318l0.583-1.324    c0.106-0.265,0-0.583-0.265-0.688c-0.265-0.106-0.583,0-0.688,0.265L16.47,2.595C16.364,2.86,16.47,3.177,16.734,3.283z" fill="#FFFFFF"/>
		<path d="M8.685,22.136c-0.265-0.106-0.583,0-0.688,0.265l-0.583,1.324c-0.106,0.265,0,0.583,0.265,0.688    c0.053,0.053,0.159,0.053,0.212,0.053c0.212,0,0.424-0.106,0.477-0.318l0.583-1.324C9.056,22.56,8.95,22.242,8.685,22.136z" fill="#FFFFFF"/>
		<path d="M24.095,16.999l-1.324-0.583c-0.265-0.106-0.583,0-0.688,0.265c-0.106,0.265,0,0.583,0.265,0.688l1.324,0.583    c0.053,0.053,0.159,0.053,0.212,0.053c0.212,0,0.424-0.106,0.477-0.318C24.519,17.423,24.36,17.158,24.095,16.999z" fill="#FFFFFF"/>
		<path d="M3.019,7.996L1.695,7.414c-0.265-0.106-0.583,0-0.688,0.265c-0.106,0.265,0,0.583,0.265,0.688L2.595,8.95    c0.053,0.053,0.159,0.053,0.212,0.053c0.212,0,0.424-0.106,0.477-0.318C3.442,8.42,3.283,8.102,3.019,7.996z" fill="#FFFFFF"/>
		<path d="M22.718,9.267c0.053,0,0.106,0,0.212-0.053l1.324-0.53c0.265-0.106,0.424-0.424,0.318-0.688    c-0.106-0.265-0.424-0.424-0.688-0.318l-1.324,0.53c-0.265,0.106-0.424,0.424-0.318,0.688C22.295,9.109,22.507,9.267,22.718,9.267    z" fill="#FFFFFF"/>
		<path d="M2.542,16.205l-1.324,0.53C0.953,16.84,0.794,17.158,0.9,17.423c0.106,0.212,0.265,0.318,0.477,0.318    c0.053,0,0.106,0,0.212-0.053l1.324-0.53c0.265-0.106,0.424-0.424,0.318-0.688C3.124,16.258,2.807,16.099,2.542,16.205z" fill="#FFFFFF"/>
		<path d="M17.211,22.507c-0.106-0.265-0.424-0.424-0.688-0.318c-0.265,0.106-0.424,0.424-0.318,0.688l0.53,1.324    c0.106,0.212,0.265,0.318,0.477,0.318c0.053,0,0.106,0,0.212-0.053c0.265-0.106,0.424-0.424,0.318-0.688L17.211,22.507z" fill="#FFFFFF"/>
		<path d="M8.208,2.913C8.314,3.124,8.473,3.23,8.685,3.23c0.053,0,0.106,0,0.212-0.053C9.162,3.071,9.32,2.754,9.214,2.489    l-0.53-1.324C8.579,0.9,8.261,0.741,7.996,0.847C7.732,0.953,7.573,1.271,7.679,1.536L8.208,2.913z" fill="#FFFFFF"/>
	</g>
</g>
<g>
</g>
<g>
</g>
<g>
</g>
<g>
</g>
<g>
</g>
<g>
</g>
<g>
</g>
<g>
</g>
<g>
</g>
<g>
</g>
<g>
</g>
<g>
</g>
<g>
</g>
<g>
</g>
<g>
</g>
</svg>
